<?xml version="1.0" encoding="UTF-8" standalone="no"?>
<!-- Created with Inkscape (http://www.inkscape.org/) -->

<svg
   xmlns:dc="http://purl.org/dc/elements/1.1/"
   xmlns:cc="http://creativecommons.org/ns#"
   xmlns:rdf="http://www.w3.org/1999/02/22-rdf-syntax-ns#"
   xmlns:svg="http://www.w3.org/2000/svg"
   xmlns="http://www.w3.org/2000/svg"
   xmlns:sodipodi="http://sodipodi.sourceforge.net/DTD/sodipodi-0.dtd"
   xmlns:inkscape="http://www.inkscape.org/namespaces/inkscape"
   width="100.58152mm"
   height="133.85072mm"
   viewBox="0 0 356.39121 474.27421"
   id="svg7194"
   version="1.1"
   inkscape:version="0.91 r13725"
   sodipodi:docname="logo.svg">
  <defs
     id="defs7196" />
  <sodipodi:namedview
     id="base"
     pagecolor="#ffffff"
     bordercolor="#666666"
     borderopacity="1.0"
     inkscape:pageopacity="0.0"
     inkscape:pageshadow="2"
     inkscape:zoom="0.35"
     inkscape:cx="-16.397334"
     inkscape:cy="-180.56518"
     inkscape:document-units="px"
     inkscape:current-layer="layer1"
     showgrid="false"
     inkscape:window-width="1280"
     inkscape:window-height="1016"
     inkscape:window-x="1280"
     inkscape:window-y="27"
     inkscape:window-maximized="0"
     fit-margin-top="0"
     fit-margin-left="0"
     fit-margin-right="0"
     fit-margin-bottom="0" />
  <metadata
     id="metadata7199">
    <rdf:RDF>
      <cc:Work
         rdf:about="">
        <dc:format>image/svg+xml</dc:format>
        <dc:type
           rdf:resource="http://purl.org/dc/dcmitype/StillImage" />
        <dc:title />
      </cc:Work>
    </rdf:RDF>
  </metadata>
  <g
     inkscape:label="Layer 1"
     inkscape:groupmode="layer"
     id="layer1"
     transform="translate(-118.38049,-16.691879)">
    <path
       style="fill:#d664bf;fill-opacity:0.5;fill-rule:evenodd;stroke:none;stroke-width:1px;stroke-linecap:butt;stroke-linejoin:miter;stroke-opacity:1"
       d="m 128.4861,407.62091 c 22.54661,48.92321 102.0769,83.68034 168.22139,82.83251 61.36959,-0.78662 132.58897,-35.2259 152.81181,-80.8122 C 507.07956,279.88899 290.92891,16.691879 290.92891,16.691879 c 0,0 -221.840974,262.042671 -162.44281,390.929031 z"
       id="path8973"
       inkscape:connector-curvature="0"
       sodipodi:nodetypes="aaaca" />
    <path
       style="fill:#ffffff;fill-opacity:1;fill-rule:evenodd;stroke:none;stroke-width:1px;stroke-linecap:butt;stroke-linejoin:miter;stroke-opacity:1"
       d="m 148.03922,414.49847 c 20.8103,45.15565 94.216,77.23614 155.26673,76.45361 56.64354,-0.72605 122.37834,-32.51317 141.04382,-74.58889 C 497.47734,296.60314 297.97238,53.674753 297.97238,53.674753 c 0,0 -204.757088,241.862857 -149.93316,360.823717 z"
       id="path8973-8"
       inkscape:connector-curvature="0"
       sodipodi:nodetypes="aaaca" />
    <path
       sodipodi:type="star"
       style="opacity:1;fill:#ffd385;fill-opacity:1;stroke:none;stroke-width:2.5;stroke-linejoin:miter;stroke-miterlimit:4;stroke-dasharray:none;stroke-dashoffset:0;stroke-opacity:1"
       id="path8190-7"
       sodipodi:sides="7"
       sodipodi:cx="290.92392"
       sodipodi:cy="273.53458"
       sodipodi:r1="148.35492"
       sodipodi:r2="74.17746"
       sodipodi:arg1="0.86733988"
       sodipodi:arg2="1.3161388"
       inkscape:flatsided="true"
       inkscape:rounded="0"
       inkscape:randomized="0"
       d="m 386.88841,386.67166 -124.58574,32.43079 -103.03336,-77.18478 -3.89475,-128.67865 98.17668,-83.27486 126.31907,24.83659 59.34062,114.24559 z"
       transform="matrix(0.99214412,0.25771859,-0.25771859,0.99214412,67.277342,-67.880575)" />
    <path
       style="opacity:1;fill:#e09500;fill-opacity:1;stroke:#000000;stroke-width:5;stroke-linejoin:miter;stroke-miterlimit:4;stroke-dasharray:none;stroke-dashoffset:0;stroke-opacity:1"
       d="M 172.92188,106.91797 56.962891,162.83594 28.380859,288.35938 108.69922,388.9707 l 128.73828,-0.0664 44.62597,-56.02051 20.79005,12.85254 -58.58985,76.77148 -143.4414,0 -35.355473,-52.52734 -25.253906,78.79101 316.177729,0 L 317.49023,288.41406 288.93945,162.7168 Z"
       transform="translate(118.38049,16.691864)"
       id="path8190"
       inkscape:connector-curvature="0"
       sodipodi:nodetypes="ccccccccccccccc" />
    <path
       sodipodi:type="star"
       style="opacity:1;fill:#ffffff;fill-opacity:1;stroke:none;stroke-width:2.5;stroke-linejoin:miter;stroke-miterlimit:4;stroke-dasharray:none;stroke-dashoffset:0;stroke-opacity:1"
       id="path8190-3"
       sodipodi:sides="7"
       sodipodi:cx="290.92392"
       sodipodi:cy="273.53458"
       sodipodi:r1="148.35492"
       sodipodi:r2="74.17746"
       sodipodi:arg1="0.86733988"
       sodipodi:arg2="1.3161388"
       inkscape:flatsided="true"
       inkscape:rounded="0"
       inkscape:randomized="0"
       d="m 386.88841,386.67166 -124.58574,32.43079 -103.03336,-77.18478 -3.89475,-128.67865 98.17668,-83.27486 126.31907,24.83659 59.34062,114.24559 z"
       transform="matrix(0.7481858,-0.19434816,-0.19434816,-0.7481858,129.22666,534.41129)" />
    <path
       style="fill:#ffffff;fill-opacity:1;fill-rule:evenodd;stroke:none;stroke-width:1px;stroke-linecap:butt;stroke-linejoin:miter;stroke-opacity:1"
       d="m 296.93164,361.66797 c 0,0 -16.16231,11.11282 35.35547,-8.08008 51.51778,-19.1929 38.38477,-84.85314 38.38477,-90.91406 0,-6.06091 -31.31332,-48.48801 -38.81785,-81.44734 C 324.3495,148.26716 350.37908,77.200722 350.37908,77.200722 L 240.25934,76.933864 c 0,0 24.25639,71.083296 16.75286,104.042636 -7.50354,32.95933 -38.81884,75.38642 -38.81884,81.44733 0,6.06092 -13.13301,71.71921 38.38476,90.91211 51.51779,19.1929 35.35547,8.08203 35.35547,8.08203"
       id="path8224"
       inkscape:connector-curvature="0"
       sodipodi:nodetypes="cssccccssc" />
    <path
       style="fill:#b54444;fill-opacity:1;fill-rule:evenodd;stroke:#000000;stroke-width:3;stroke-linecap:butt;stroke-linejoin:miter;stroke-opacity:1;stroke-miterlimit:4;stroke-dasharray:none"
       d="m 329.37572,335.52681 c 47.09979,-16.70967 34.89323,-77.13476 34.89323,-82.64436 0,-5.50961 -28.46501,-44.07747 -35.28691,-74.03876 -6.82191,-29.9613 16.83998,-94.563413 16.83998,-94.563413 L 245.71895,84.037693 c 0,0 22.04999,64.617437 15.22899,94.578747 -6.82101,29.96129 -35.28782,68.52914 -35.28782,74.03874 0,5.50962 -11.78581,64.79128 34.89322,82.6426 18.54738,7.09302 22.67437,7.42314 34.41119,7.4605 11.72088,0.0373 11.57067,0.8717 34.41119,-7.23147 z"
       id="path8224-3"
       inkscape:connector-curvature="0"
       sodipodi:nodetypes="ssccccssas" />
  </g>
</svg>
